<?xml version="1.0" encoding="utf-8"?>
<!-- Generator: Adobe Illustrator 22.1.0, SVG Export Plug-In . SVG Version: 6.00 Build 0)  -->
<svg version="1.1" id="Layer_1" xmlns="http://www.w3.org/2000/svg" xmlns:xlink="http://www.w3.org/1999/xlink" x="0px" y="0px"
	 viewBox="0 0 512 512" style="enable-background:new 0 0 512 512;" xml:space="preserve" fill="#ddd">
<g>
	<path d="M361,239.7l-159.7-97.1c-14.3-8-32.4,2.3-32.4,19.1v188.7c0,16.7,18,27,32.4,19.1L361,277.8
		C375.8,269.5,375.8,248,361,239.7z M481,256c0-124.3-100.7-225-225-225S31,131.7,31,256s100.7,225,225,225S481,380.3,481,256z
		 M74.5,256c0-100.3,81.2-181.5,181.5-181.5S437.5,155.7,437.5,256S356.3,437.5,256,437.5S74.5,356.3,74.5,256z"/>
</g>
</svg>
